<svg width="24" height="24" viewBox="0 0 24 24" fill="none" xmlns="http://www.w3.org/2000/svg">
<path fill-rule="evenodd" clip-rule="evenodd" d="M12 24C5.37258 24 0 18.6274 0 12C0 5.37258 5.37258 0 12 0C18.6274 0 24 5.37258 24 12C24 18.6274 18.6274 24 12 24ZM12.0001 21.8182C17.4225 21.8182 21.8182 17.4224 21.8182 12C21.8182 6.57754 17.4225 2.18179 12.0001 2.18179C6.57763 2.18179 2.18188 6.57754 2.18188 12C2.18188 17.4224 6.57763 21.8182 12.0001 21.8182ZM8.40765 17.1351L11.9999 13.5429L15.5921 17.1351L17.1349 15.5923L13.5427 12.0001L17.1349 8.40783L15.5921 6.86505L11.9999 10.4573L8.40765 6.86505L6.86487 8.40783L10.4571 12.0001L6.86487 15.5923L8.40765 17.1351Z" fill="#2E2E2E"/>
</svg>
