<?xml version="1.0" encoding="UTF-8" standalone="no"?>
<!-- Created with Inkscape (http://www.inkscape.org/) -->

<svg
   width="18mm"
   height="18mm"
   viewBox="0 0 18 18"
   version="1.1"
   id="svg1"
   xml:space="preserve"
   inkscape:version="1.3 (0e150ed6c4, 2023-07-21)"
   sodipodi:docname="favicon.svg"
   inkscape:export-filename="favicon.png"
   inkscape:export-xdpi="112.88889"
   inkscape:export-ydpi="112.88889"
   xmlns:inkscape="http://www.inkscape.org/namespaces/inkscape"
   xmlns:sodipodi="http://sodipodi.sourceforge.net/DTD/sodipodi-0.dtd"
   xmlns="http://www.w3.org/2000/svg"
   xmlns:svg="http://www.w3.org/2000/svg"><sodipodi:namedview
     id="namedview1"
     pagecolor="#ffffff"
     bordercolor="#000000"
     borderopacity="0.25"
     inkscape:showpageshadow="2"
     inkscape:pageopacity="0.0"
     inkscape:pagecheckerboard="0"
     inkscape:deskcolor="#d1d1d1"
     inkscape:document-units="mm"
     inkscape:zoom="7.9320556"
     inkscape:cx="32.589282"
     inkscape:cy="43.053153"
     inkscape:window-width="1920"
     inkscape:window-height="1001"
     inkscape:window-x="-9"
     inkscape:window-y="-9"
     inkscape:window-maximized="1"
     inkscape:current-layer="layer1" /><defs
     id="defs1" /><g
     inkscape:label="Слой 1"
     inkscape:groupmode="layer"
     id="layer1"
     transform="matrix(0.57868447,0,0,0.57868447,-7.3789058,-4.4307009)"><circle
       style="fill:#f2c1e4;fill-opacity:0.670543;stroke:none;stroke-width:0.272775;stroke-linecap:round;stroke-linejoin:round"
       id="path1"
       cx="28.30369"
       cy="23.209023"
       r="15.095302" /><path
       id="path5"
       style="fill:#000000;stroke-width:1.24579"
       d="m 28.100456,11.551297 c -3.140127,0.08734 -6.37058,2.431095 -6.991711,6.817109 -0.525364,3.709673 0.940695,6.708269 -1.2318,7.335157 -1.147932,0.331239 -2.582075,-0.167531 -2.582075,-0.167531 0,0 1.20948,3.705459 5.066781,2.218611 -2.093262,3.972049 -7.272843,1.117168 -7.272843,1.117168 0,0 1.607178,2.706471 2.778778,3.716381 0.813509,0.701238 1.817538,1.18922 2.836751,1.527946 1.79129,0.595318 3.718694,0.694963 5.601259,0.833063 2.829309,0.207551 7.074805,0.272309 8.510729,-0.01015 0.709721,-0.139608 1.579918,-0.917069 1.743822,-1.329372 0.767603,-1.930911 -0.24466,-3.990348 -1.253746,-4.72736 -1.761044,-1.286224 -4.366141,-2.203741 -5.268793,-3.688733 -0.38737,-0.637292 -0.121678,-2.729683 -0.121678,-2.729683 0,0 1.405629,0.707545 2.171405,0.924784 0.848203,0.240623 2.246025,0.640706 2.729767,-0.0949 0.360474,-0.548159 0.07091,-3.139808 -0.290529,-4.312576 -0.07699,-0.249742 0.898677,-0.07709 1.211668,-0.633837 0.120837,-0.204847 0,0 -0.20553,-0.430711 -0.70497,-0.447975 -1.679804,-3.017118 -2.460929,-4.039851 -1.235831,-1.618093 -3.087251,-2.377854 -4.97133,-2.325451 z"
       sodipodi:nodetypes="ccscccaaasssscsscccscc" /></g></svg>
