<svg width="30" height="31" viewBox="0 0 30 31" fill="none" xmlns="http://www.w3.org/2000/svg">
<path fill-rule="evenodd" clip-rule="evenodd" d="M5.94794 4.8C6.30621 2.17823 8.96693 0 12.0002 0C15.0334 0 17.6941 2.17823 18.0524 4.8H21.5627C22.9088 4.8 24 5.87452 24 7.2C24 7.31357 23.9918 7.42699 23.9755 7.53941L21.8864 21.9394C21.7149 23.1218 20.6866 24 19.4737 24H4.52665C3.31375 24 2.28542 23.1218 2.11389 21.9394L0.0248061 7.53941C-0.165556 6.22725 0.760357 5.01157 2.09289 4.82412C2.20706 4.80806 2.32224 4.8 2.43757 4.8H5.94794ZM15.5681 4.8C15.1977 3.52569 13.7038 2.4 12.0001 2.4C10.2964 2.4 8.80258 3.52569 8.43213 4.8H15.5681ZM2.4375 7.2H5.90693V9.6H8.34419V7.2H15.656V9.6H18.0932V7.2H21.5627L19.4736 21.6H4.52658L2.4375 7.2Z" fill="#2E2E2E"/>
<rect x="10" y="11" width="20" height="20" rx="2" fill="white"/>
<rect x="12" y="13" width="16" height="16" rx="2" fill="#FF5C49"/>
<path d="M19.3525 21.5464H20.3086C21.27 21.5464 21.8608 22.0244 21.8608 22.8086C21.8608 23.5229 21.2324 24.0225 20.3408 24.0225C19.417 24.0225 18.8369 23.5498 18.7725 22.8408H17.4512C17.521 24.2212 18.6274 25.1558 20.3301 25.1558C22.022 25.1558 23.2681 24.2319 23.2681 22.8623C23.2681 21.7827 22.5161 21.0737 21.356 20.9878V20.9556C22.312 20.7891 22.9565 20.0962 22.9565 19.1348C22.9565 17.9263 21.8716 17.0938 20.3462 17.0938C18.7456 17.0938 17.6768 17.9961 17.6016 19.3872H18.8906C18.9443 18.6621 19.4814 18.1948 20.2817 18.1948C21.1519 18.1948 21.6245 18.646 21.6245 19.3228C21.6245 20.0156 21.082 20.5044 20.2871 20.5044H19.3525V21.5464Z" fill="white"/>
</svg>
