<svg width="14" height="14" viewBox="0 0 14 14" fill="none" xmlns="http://www.w3.org/2000/svg">
<path fill-rule="evenodd" clip-rule="evenodd" d="M3.46963 2.8C3.67862 1.27063 5.23071 0 7.00009 0C8.76947 0 10.3216 1.27063 10.5305 2.8H12.5783C13.3635 2.8 14 3.4268 14 4.2C14 4.26625 13.9952 4.33241 13.9857 4.39799L12.7671 12.798C12.667 13.4877 12.0672 14 11.3596 14H2.64055C1.93302 14 1.33316 13.4877 1.2331 12.798L0.0144702 4.39799C-0.0965742 3.63256 0.443542 2.92342 1.22085 2.81407C1.28745 2.8047 1.35464 2.8 1.42192 2.8H3.46963ZM9.0814 2.7999C8.86531 2.05656 7.99388 1.3999 7.00007 1.3999C6.00625 1.3999 5.13483 2.05656 4.91873 2.7999H9.0814ZM1.42188 4.19995H3.44571V5.59995H4.86744V4.19995H9.13265V5.59995H10.5544V4.19995H12.5782L11.3596 12.6H2.64051L1.42188 4.19995Z" fill="white"/>
</svg>
