<svg width="20" height="20" viewBox="0 0 20 20" fill="none" xmlns="http://www.w3.org/2000/svg">
<path fill-rule="evenodd" clip-rule="evenodd" d="M18 4H14V2.05882C14 0.934143 13.1178 0 12 0H2C0.882246 0 0 0.934143 0 2.05882V17.9412C0 19.0659 0.882246 20 2 20H12C13.1178 20 14 19.0659 14 17.9412V16H18C19.1046 16 20 15.1046 20 14V6C20 4.89543 19.1046 4 18 4ZM13.9998 9.00003H17.9998V14H13.9998V9.00003ZM11.9998 17.9411V2.05876C11.9998 2.03881 11.9972 2.02497 11.9955 2.01575C11.9933 2.00424 11.9925 1.99993 11.9998 1.99993H1.99984C2.00716 1.99993 2.00635 2.00424 2.00418 2.01575C2.00244 2.02497 1.99984 2.03881 1.99984 2.05876V17.9411C1.99984 17.9611 2.00244 17.9749 2.00418 17.9841C2.00635 17.9956 2.00716 17.9999 1.99984 17.9999H11.9998C11.9925 17.9999 11.9933 17.9956 11.9955 17.9841C11.9972 17.9749 11.9998 17.9611 11.9998 17.9411ZM3.00016 15V17H5.00016V15H3.00016ZM6.00016 17V15H8.00016V17H6.00016ZM8.99984 15V17H10.9998V15H8.99984ZM3.00016 13.9999V11.9999H5.00016V13.9999H3.00016ZM6.00016 11.9999V13.9999H8.00016V11.9999H6.00016ZM8.99984 13.9999V11.9999H10.9998V13.9999H8.99984ZM11.0002 11.0001V3.00007H3.00016V11.0001H11.0002ZM5 5V9H9V5H5ZM17.9998 5.99997V6.99997H13.9998V5.99997H17.9998Z" fill="white"/>
</svg>
