<svg width="58" height="48" viewBox="0 0 58 48" fill="none" xmlns="http://www.w3.org/2000/svg">
<path d="M24 48C37.2548 48 48 37.2548 48 24C48 10.7452 37.2548 0 24 0C10.7452 0 0 10.7452 0 24C0 37.2548 10.7452 48 24 48Z" fill="#F2C1E4" fill-opacity="0.670543"/>
<path d="M22.54 29.5086C22.1799 29.4207 21.4686 30.8866 20.8682 31.6346C20.1444 32.5365 18.9722 33.6672 19.1985 34.6757L20.3763 39.9271C19.5974 40.4652 19.2584 41.584 18.8026 42.4709C18.314 43.4215 17.5674 45.43 17.5674 45.43C17.7936 46.4386 18.2833 46.3037 18.8496 45.913C19.1364 45.715 19.6919 44.6343 20.1235 44.0021C20.8534 42.9332 22.0654 41.2157 22.4362 40.6907C22.4562 40.679 22.4775 40.6683 22.496 40.6556C22.5674 40.6063 22.638 40.481 22.706 40.3079C22.9109 39.7857 23.0926 38.8272 23.2067 38.1967C23.7121 35.4047 23.8432 29.8267 22.54 29.5086Z" fill="black"/>
<path d="M31.3438 27C31.2969 26.6042 31.1068 26.2969 30.7734 26.0781C30.4401 25.8594 30.0313 25.75 29.5469 25.75C29.1927 25.75 28.8828 25.8073 28.6172 25.9219C28.3542 26.0365 28.1484 26.194 28 26.3945C27.8542 26.5951 27.7813 26.8229 27.7813 27.0781C27.7813 27.2917 27.832 27.4753 27.9336 27.6289C28.0378 27.7799 28.1706 27.9062 28.332 28.0078C28.4935 28.1068 28.6628 28.1888 28.8398 28.2539C29.0169 28.3164 29.1797 28.3672 29.3281 28.4062L30.1406 28.625C30.349 28.6797 30.5807 28.7552 30.8359 28.8516C31.0938 28.9479 31.3398 29.0794 31.5742 29.2461C31.8112 29.4102 32.0065 29.6211 32.1602 29.8789C32.3138 30.1367 32.3906 30.4531 32.3906 30.8281C32.3906 31.2604 32.2773 31.651 32.0508 32C31.8268 32.349 31.4987 32.6263 31.0664 32.832C30.6367 33.0378 30.1146 33.1406 29.5 33.1406C28.9271 33.1406 28.431 33.0482 28.0117 32.8633C27.5951 32.6784 27.2669 32.4206 27.0273 32.0898C26.7904 31.7591 26.6563 31.375 26.625 30.9375H27.625C27.651 31.2396 27.7526 31.4896 27.9297 31.6875C28.1094 31.8828 28.3359 32.0286 28.6094 32.125C28.8854 32.2187 29.1823 32.2656 29.5 32.2656C29.8698 32.2656 30.2018 32.2057 30.4961 32.0859C30.7904 31.9635 31.0234 31.7943 31.1953 31.5781C31.3672 31.3594 31.4531 31.1042 31.4531 30.8125C31.4531 30.5469 31.3789 30.3307 31.2305 30.1641C31.082 29.9974 30.8867 29.862 30.6445 29.7578C30.4023 29.6536 30.1406 29.5625 29.8594 29.4844L28.875 29.2031C28.25 29.0234 27.7552 28.7669 27.3906 28.4336C27.026 28.1003 26.8438 27.6641 26.8438 27.125C26.8438 26.6771 26.9648 26.2865 27.207 25.9531C27.4518 25.6172 27.7799 25.3568 28.1914 25.1719C28.6055 24.9844 29.0677 24.8906 29.5781 24.8906C30.0938 24.8906 30.5521 24.9831 30.9531 25.168C31.3542 25.3503 31.6719 25.6003 31.9062 25.918C32.1432 26.2357 32.2682 26.5964 32.2813 27H31.3438ZM33.9834 33V25H34.9521V28.5625H39.2178V25H40.1865V33H39.2178V29.4219H34.9521V33H33.9834ZM48.876 29C48.876 29.8437 48.7236 30.5729 48.4189 31.1875C48.1143 31.8021 47.6963 32.276 47.165 32.6094C46.6338 32.9427 46.027 33.1094 45.3447 33.1094C44.6624 33.1094 44.0557 32.9427 43.5244 32.6094C42.9932 32.276 42.5752 31.8021 42.2705 31.1875C41.9658 30.5729 41.8135 29.8437 41.8135 29C41.8135 28.1562 41.9658 27.4271 42.2705 26.8125C42.5752 26.1979 42.9932 25.724 43.5244 25.3906C44.0557 25.0573 44.6624 24.8906 45.3447 24.8906C46.027 24.8906 46.6338 25.0573 47.165 25.3906C47.6963 25.724 48.1143 26.1979 48.4189 26.8125C48.7236 27.4271 48.876 28.1562 48.876 29ZM47.9385 29C47.9385 28.3073 47.8226 27.7227 47.5908 27.2461C47.3617 26.7695 47.0505 26.4089 46.6572 26.1641C46.2666 25.9193 45.8291 25.7969 45.3447 25.7969C44.8604 25.7969 44.4215 25.9193 44.0283 26.1641C43.6377 26.4089 43.3265 26.7695 43.0947 27.2461C42.8656 27.7227 42.751 28.3073 42.751 29C42.751 29.6927 42.8656 30.2773 43.0947 30.7539C43.3265 31.2305 43.6377 31.5911 44.0283 31.8359C44.4215 32.0807 44.8604 32.2031 45.3447 32.2031C45.8291 32.2031 46.2666 32.0807 46.6572 31.8359C47.0505 31.5911 47.3617 31.2305 47.5908 30.7539C47.8226 30.2773 47.9385 29.6927 47.9385 29ZM50.5049 33V25H53.208C53.8356 25 54.3486 25.1133 54.7471 25.3398C55.1481 25.5638 55.445 25.8672 55.6377 26.25C55.8304 26.6328 55.9268 27.0599 55.9268 27.5312C55.9268 28.0026 55.8304 28.431 55.6377 28.8164C55.4476 29.2018 55.1533 29.5091 54.7549 29.7383C54.3564 29.9648 53.846 30.0781 53.2236 30.0781H51.2861V29.2188H53.1924C53.6221 29.2188 53.9671 29.1445 54.2275 28.9961C54.488 28.8477 54.6768 28.6471 54.7939 28.3945C54.9137 28.1393 54.9736 27.8516 54.9736 27.5312C54.9736 27.2109 54.9137 26.9245 54.7939 26.6719C54.6768 26.4193 54.4867 26.2214 54.2236 26.0781C53.9606 25.9323 53.6117 25.8594 53.1768 25.8594H51.4736V33H50.5049Z" fill="#232323"/>
<path d="M8.3415 35.2555C8.08185 35.1538 8.0562 35.0888 8.23262 34.9798C8.65862 34.7165 9.78751 32.0092 10.496 29.5518C11.3983 26.4219 12.6587 24.6511 14.5215 23.8965C14.5453 23.8868 14.2467 23.2642 13.8579 22.5128C13.151 21.1467 13.151 21.1467 14.2174 19.1014C14.804 17.9765 15.1808 17.3932 14.8605 17.5748C14.2184 17.9387 13.2673 17.8268 12.5963 17.48C11.801 17.0691 10.9525 15.3562 10.9525 15.3562C10.9525 15.3562 14.3339 14.9951 14.6892 13.9372C12.6335 14.7296 11.804 12.9853 11.804 12.9853C11.804 12.9853 12.7526 13.0207 13.3644 12.8442C14.5222 12.5101 13.7408 10.9117 14.0208 8.93468C14.5505 5.19473 18.6402 4.24152 20.3965 6.5411C20.8128 7.08616 21.476 7.64072 21.8517 7.87946C21.9011 7.91083 22.0286 7.9745 21.9642 8.08367C21.8769 8.23166 21.5244 8.3806 21.5654 8.5137C21.7581 9.13871 22.0525 10.8676 21.8604 11.1597C21.6026 11.5518 20.9604 11.3992 20.4989 11.4164C20.2024 11.4276 19.6144 11.3173 19.6144 11.3173C19.6144 11.3173 19.5061 12.166 19.7126 12.5056C20.1936 13.297 21.0767 13.3725 22.0653 13.9836C23.2982 14.7456 23.6318 15.8415 22.6477 17.1587C22.2355 17.7103 22.6311 17.9153 22.7873 18.845C23.178 21.1702 23.2035 21.6725 23.0007 23.0464C21.849 30.8479 18.2825 34.5555 11.274 35.2373C9.26644 35.4326 8.80122 35.4355 8.3415 35.2555ZM17.1946 22.9221C18.8984 22.4116 18.9916 21.2332 17.502 19.0327C16.7919 17.9836 16.8529 17.9694 15.8969 19.4074C14.9854 20.7784 14.9711 20.8537 15.4206 21.9085C15.6008 22.3314 15.7991 22.824 15.8612 23.0031C15.9252 23.1876 16.0799 23.2882 16.218 23.2352C16.352 23.1838 16.7915 23.0429 17.1946 22.9221Z" fill="black"/>
</svg>
