<?xml version="1.0" encoding="UTF-8" standalone="no"?>
<!-- Created with Inkscape (http://www.inkscape.org/) -->

<svg
   width="32mm"
   height="32mm"
   viewBox="0 0 32 32"
   version="1.1"
   id="svg1"
   xml:space="preserve"
   inkscape:version="1.3 (0e150ed6c4, 2023-07-21)"
   sodipodi:docname="logo.svg"
   inkscape:export-filename="logo.png"
   inkscape:export-xdpi="714.375"
   inkscape:export-ydpi="714.375"
   xmlns:inkscape="http://www.inkscape.org/namespaces/inkscape"
   xmlns:sodipodi="http://sodipodi.sourceforge.net/DTD/sodipodi-0.dtd"
   xmlns="http://www.w3.org/2000/svg"
   xmlns:svg="http://www.w3.org/2000/svg"><sodipodi:namedview
     id="namedview1"
     pagecolor="#ffffff"
     bordercolor="#000000"
     borderopacity="0.25"
     inkscape:showpageshadow="2"
     inkscape:pageopacity="0.0"
     inkscape:pagecheckerboard="0"
     inkscape:deskcolor="#d1d1d1"
     inkscape:document-units="mm"
     inkscape:zoom="11.217621"
     inkscape:cx="67.304826"
     inkscape:cy="62.089816"
     inkscape:window-width="1920"
     inkscape:window-height="1001"
     inkscape:window-x="-9"
     inkscape:window-y="-9"
     inkscape:window-maximized="1"
     inkscape:current-layer="layer1" /><defs
     id="defs1" /><g
     inkscape:label="Слой 1"
     inkscape:groupmode="layer"
     id="layer1"
     transform="matrix(0.75693209,0,0,0.75693209,-5.4239712,-1.5676539)"><circle
       style="fill:#f2c1e4;fill-opacity:0.670543;stroke:none;stroke-width:0.272775;stroke-linecap:round;stroke-linejoin:round"
       id="path1"
       cx="28.30369"
       cy="23.209023"
       r="15.095302" /><path
       id="rect2"
       style="fill:#000000;fill-opacity:1;stroke-width:0.272775;stroke-linecap:round;stroke-linejoin:round"
       d="m 27.38536,26.67379 c -0.226465,-0.05527 -0.673845,0.866708 -1.05147,1.337208 -0.455289,0.567263 -1.19252,1.2784 -1.050228,1.91277 l 0.740834,3.302968 c -0.489946,0.338407 -0.703161,1.042129 -0.989853,1.599979 -0.307268,0.597879 -0.776886,1.861167 -0.776886,1.861167 0.142293,0.634368 0.450311,0.549568 0.80649,0.303778 0.180407,-0.124493 0.529791,-0.80425 0.801259,-1.201868 0.459032,-0.672321 1.221388,-1.752575 1.4546,-2.082774 0.0126,-0.0074 0.02596,-0.0141 0.03758,-0.0221 0.04492,-0.03101 0.08937,-0.109787 0.132098,-0.218682 0.128874,-0.328426 0.24319,-0.931321 0.31496,-1.327876 0.317833,-1.756116 0.400348,-5.264492 -0.41938,-5.464545 z"
       sodipodi:nodetypes="ssccscsscssss" /><text
       xml:space="preserve"
       style="font-size:0.994619px;opacity:1;fill:#232323;fill-opacity:1;stroke:none;stroke-width:0.272775;stroke-linecap:round;stroke-linejoin:round;stroke-opacity:1"
       x="29.759188"
       y="26.503189"
       id="text3"><tspan
         sodipodi:role="line"
         id="tspan3"
         style="font-style:normal;font-variant:normal;font-weight:normal;font-stretch:normal;font-size:4.47577px;font-family:Tahoma;-inkscape-font-specification:'Tahoma, Normal';font-variant-ligatures:normal;font-variant-caps:normal;font-variant-numeric:normal;font-variant-east-asian:normal;stroke:none;stroke-width:0.272775"
         x="29.759188"
         y="26.503189">SHOP</tspan></text><path
       style="fill:#000000;stroke-width:0.417593"
       d="m 18.455135,30.288394 c -0.163308,-0.06395 -0.179444,-0.104804 -0.06848,-0.173385 0.267944,-0.165597 0.977978,-1.868437 1.423571,-3.414079 0.567518,-1.968568 1.360331,-3.082351 2.53193,-3.556983 0.01499,-0.0061 -0.172817,-0.397708 -0.417368,-0.87029 -0.44464,-0.859244 -0.44464,-0.859244 0.226148,-2.145664 0.368931,-0.707533 0.605923,-1.074466 0.404435,-0.960246 -0.403804,0.228911 -1.002023,0.158552 -1.424115,-0.05957 -0.500224,-0.258498 -1.033893,-1.335842 -1.033893,-1.335842 0,0 2.126817,-0.227134 2.350299,-0.892532 -1.292977,0.498395 -1.814737,-0.598686 -1.814737,-0.598686 0,0 0.596659,0.02226 0.981449,-0.08877 0.728226,-0.210135 0.236786,-1.215462 0.412889,-2.458954 0.333127,-2.352324 2.905429,-2.951865 4.010105,-1.505493 0.261835,0.342823 0.679014,0.691625 0.915321,0.841788 0.03104,0.01973 0.111234,0.05978 0.07073,0.128442 -0.0549,0.09308 -0.276616,0.186763 -0.250814,0.270478 0.121159,0.393114 0.306357,1.480531 0.185525,1.664275 -0.162152,0.246576 -0.566074,0.150615 -0.856351,0.16146 -0.186477,0.007 -0.556336,-0.06238 -0.556336,-0.06238 0,0 -0.06809,0.533803 0.06176,0.747425 0.302571,0.497773 0.857995,0.545262 1.479792,0.929601 0.775445,0.479309 0.985307,1.168601 0.366299,1.997068 -0.259211,0.346922 -0.01044,0.475886 0.08785,1.060667 0.245733,1.462428 0.261781,1.778379 0.134211,2.642529 -0.724391,4.906895 -2.967614,7.238911 -7.375752,7.667721 -1.262706,0.122831 -1.555297,0.124639 -1.844451,0.0114 z m 5.568325,-7.757328 c 1.071674,-0.321079 1.130262,-1.062253 0.193379,-2.44629 -0.446674,-0.65986 -0.408293,-0.668817 -1.00956,0.235623 -0.573306,0.862371 -0.582322,0.90971 -0.299598,1.573173 0.113343,0.26599 0.238061,0.57579 0.277148,0.688436 0.04026,0.116049 0.137513,0.179323 0.224373,0.145995 0.08431,-0.03236 0.360729,-0.120977 0.614258,-0.196937 z"
       id="path5"
       sodipodi:nodetypes="csscsssacccscsssssacassccsccssssccs" /></g></svg>
